# xmcd
#
# Track frame offsets:
#	150
#	17167
#	38677
#	59457
#	77710
#	91082
#	112517
#	130905
#	144995
#	168817
#
# Disc length: 2456
#
# Revision: 1
# Processed by: cddbd v1.5.1PL0 Copyright (c) Steve Scherf et al.
# Submitted via: CDex 1.51
# Normalized: r0:TDELIM( - ),TSWAP
#
DISCID=6d09960a
DTITLE=HU - Sampler Best of the Best 1016
DYEAR=1995
DGENRE=New Age
TTITLE0=Malcom McLaren - Aria on Air
TTITLE1=Mike Oldfield - Tubular Bells
TTITLE2=Arturo Neri - No se tú
TTITLE3=D A Stewart - Lily was Here
TTITLE4=Ennio Morricone - Theme From the Mission
TTITLE5=Kenni G - Songbird
TTITLE6=Enigma - Return to Innocence
TTITLE7=Michael Nyman - The Heart Ask Pleasure First
TTITLE8=Ennio Morricone - Chi Mai
TTITLE9=Arturo Neri - La Media Vuelta
EXTD=YEAR: 1995
EXTT0=
EXTT1=
EXTT2=
EXTT3=
EXTT4=
EXTT5=
EXTT6=
EXTT7=
EXTT8=
EXTT9=
PLAYORDER=
